<svg version="1.1" viewBox="33.813677824267785 20.409233999999998 29.54715062761506 27.875310000000002" xmlns:xlink="http://www.w3.org/1999/xlink" xmlns="http://www.w3.org/2000/svg" style="max-height: 500px" width="29.54715062761506" height="27.875310000000002">
<g id="surface1">
<path d="M 47.628906 34.976562 C 47.691406 35 47.746094 35.03125 47.804688 35.039062 C 48.140625 35.082031 48.40625 35 48.6875 34.761719 C 49.214844 34.316406 49.425781 33.828125 49.402344 33.117188 C 49.347656 31.367188 49.386719 29.609375 49.386719 27.855469 L 49.386719 27.289062 L 47.628906 27.289062 Z M 49.339844 44.949219 C 49.359375 44.839844 49.378906 44.78125 49.382812 44.726562 C 49.382812 42.476562 49.386719 40.226562 49.375 37.976562 C 49.375 37.835938 49.269531 37.6875 49.1875 37.558594 C 48.816406 36.964844 48.246094 37 47.644531 37.082031 L 47.644531 44.949219 Z M 45.527344 25.621094 C 47.496094 25.125 49.480469 25.132812 51.519531 25.632812 L 51.519531 26.074219 C 51.519531 28.785156 51.523438 31.496094 51.507812 34.203125 C 51.507812 34.410156 51.394531 34.660156 51.257812 34.8125 C 50.917969 35.1875 50.535156 35.515625 50.152344 35.875 C 50.5625 36.292969 50.933594 36.648438 51.28125 37.027344 C 51.390625 37.148438 51.507812 37.324219 51.507812 37.472656 C 51.519531 40.480469 51.511719 43.488281 51.503906 46.5 C 51.503906 46.511719 51.496094 46.523438 51.46875 46.589844 C 49.5 47.125 47.507812 47.097656 45.527344 46.585938 Z M 45.527344 25.621094" style="stroke:none;fill-rule:nonzero;fill:rgb(6.666667%,9.411765%,13.333334%);fill-opacity:1;"/>
<path d="M 52.632812 46.277344 L 52.632812 26.019531 C 53.390625 26.25 54.042969 26.613281 54.660156 27.035156 C 54.753906 27.097656 54.75 27.335938 54.75 27.492188 C 54.753906 29.828125 54.753906 32.167969 54.753906 34.507812 L 54.753906 35 L 57.773438 35 C 57.578125 33.070312 56.695312 31.480469 55.359375 30.058594 C 55.859375 29.617188 56.332031 29.199219 56.800781 28.78125 C 60.707031 32.40625 61.0625 39.414062 56.710938 43.566406 C 56.230469 43.136719 55.746094 42.703125 55.234375 42.242188 C 56.671875 40.804688 57.546875 39.117188 57.804688 37.078125 L 54.753906 37.078125 L 54.753906 37.636719 C 54.753906 40.003906 54.75 42.375 54.761719 44.742188 C 54.761719 45.0625 54.679688 45.269531 54.378906 45.410156 C 53.816406 45.667969 53.269531 45.957031 52.632812 46.277344" style="stroke:none;fill-rule:nonzero;fill:rgb(6.666667%,9.411765%,13.333334%);fill-opacity:1;"/>
<path d="M 38.179688 31.949219 C 38.179688 31.804688 38.179688 31.648438 38.222656 31.511719 C 38.4375 30.832031 39.628906 29.207031 40.316406 28.671875 L 40.316406 29.941406 C 40.316406 33.28125 40.308594 36.617188 40.328125 39.953125 C 40.328125 40.242188 40.425781 40.582031 40.589844 40.8125 C 41.058594 41.457031 41.582031 42.058594 42.085938 42.675781 C 42.140625 42.652344 42.199219 42.628906 42.253906 42.605469 L 42.253906 42.203125 C 42.253906 37.359375 42.265625 32.519531 42.242188 27.675781 C 42.242188 27.191406 42.363281 26.910156 42.8125 26.722656 C 43.324219 26.511719 43.8125 26.242188 44.371094 25.96875 L 44.371094 46.261719 C 43.828125 46 43.316406 45.785156 42.835938 45.515625 C 40.917969 44.453125 39.414062 42.964844 38.382812 41.023438 C 38.253906 40.785156 38.191406 40.488281 38.183594 40.21875" style="stroke:none;fill-rule:nonzero;fill:rgb(6.666667%,9.411765%,13.333334%);fill-opacity:1;"/>
<path d="M 35.296875 31.351562 L 35.988281 31.617188 C 36.195312 31.695312 36.332031 31.65625 36.382812 31.515625 C 36.4375 31.371094 36.367188 31.257812 36.15625 31.175781 L 35.460938 30.910156 L 35.566406 30.640625 L 36.238281 30.894531 C 36.613281 31.035156 36.71875 31.292969 36.597656 31.609375 C 36.484375 31.914062 36.25 32.027344 35.863281 31.882812 L 35.191406 31.628906 Z M 35.296875 31.351562" style="stroke:none;fill-rule:nonzero;fill:rgb(13.725491%,12.156863%,12.54902%);fill-opacity:1;"/>
<path d="M 37.429688 29.761719 L 36.339844 29.074219 L 36.519531 28.785156 L 37.0625 28.808594 C 37.21875 28.816406 37.394531 28.839844 37.546875 28.867188 L 37.550781 28.863281 C 37.398438 28.789062 37.246094 28.699219 37.082031 28.597656 L 36.765625 28.394531 L 36.90625 28.167969 L 37.996094 28.855469 L 37.832031 29.117188 L 37.265625 29.085938 C 37.109375 29.074219 36.925781 29.058594 36.761719 29.03125 L 36.761719 29.039062 C 36.910156 29.121094 37.066406 29.214844 37.242188 29.328125 L 37.570312 29.535156 Z M 37.429688 29.761719" style="stroke:none;fill-rule:nonzero;fill:rgb(13.725491%,12.156863%,12.54902%);fill-opacity:1;"/>
<path d="M 38.945312 26.84375 L 38.691406 26.710938 C 38.621094 26.675781 38.535156 26.625 38.46875 26.585938 L 38.464844 26.589844 C 38.507812 26.65625 38.566406 26.738281 38.605469 26.804688 L 38.75 27.050781 Z M 38.878906 27.230469 L 39.054688 27.523438 L 38.847656 27.746094 L 38.183594 26.570312 L 38.445312 26.292969 L 39.65625 26.890625 L 39.441406 27.117188 L 39.132812 26.960938 Z M 38.878906 27.230469" style="stroke:none;fill-rule:nonzero;fill:rgb(13.725491%,12.156863%,12.54902%);fill-opacity:1;"/>
<path d="M 40.199219 24.757812 L 40.972656 25.792969 L 40.738281 25.96875 L 39.964844 24.933594 Z M 40.199219 24.757812" style="stroke:none;fill-rule:nonzero;fill:rgb(13.725491%,12.156863%,12.54902%);fill-opacity:1;"/>
<path d="M 42.09375 24.699219 C 42.183594 24.699219 42.308594 24.675781 42.417969 24.621094 C 42.535156 24.558594 42.570312 24.472656 42.53125 24.398438 C 42.496094 24.328125 42.417969 24.316406 42.257812 24.339844 C 42.03125 24.375 41.855469 24.335938 41.765625 24.167969 C 41.664062 23.972656 41.746094 23.738281 42.015625 23.59375 C 42.144531 23.527344 42.253906 23.503906 42.335938 23.5 L 42.390625 23.738281 C 42.332031 23.742188 42.234375 23.75 42.121094 23.808594 C 42.011719 23.871094 41.984375 23.949219 42.015625 24.007812 C 42.054688 24.082031 42.132812 24.078125 42.3125 24.058594 C 42.550781 24.023438 42.703125 24.082031 42.785156 24.242188 C 42.886719 24.433594 42.824219 24.671875 42.511719 24.839844 C 42.382812 24.910156 42.238281 24.941406 42.152344 24.941406 Z M 42.09375 24.699219" style="stroke:none;fill-rule:nonzero;fill:rgb(13.725491%,12.156863%,12.54902%);fill-opacity:1;"/>
<path d="M 46.125 23.328125 C 46.152344 23.324219 46.1875 23.320312 46.234375 23.3125 C 46.367188 23.289062 46.472656 23.21875 46.449219 23.085938 C 46.425781 22.957031 46.304688 22.925781 46.160156 22.949219 L 46.0625 22.96875 Z M 46.027344 22.761719 L 46.121094 22.746094 C 46.269531 22.71875 46.339844 22.640625 46.324219 22.546875 C 46.308594 22.453125 46.226562 22.414062 46.097656 22.4375 C 46.035156 22.445312 46 22.457031 45.976562 22.464844 Z M 45.65625 22.324219 C 45.730469 22.296875 45.882812 22.257812 46.023438 22.234375 C 46.199219 22.203125 46.308594 22.199219 46.410156 22.238281 C 46.507812 22.269531 46.585938 22.347656 46.605469 22.460938 C 46.625 22.574219 46.578125 22.691406 46.445312 22.769531 L 46.445312 22.773438 C 46.597656 22.789062 46.722656 22.878906 46.753906 23.042969 C 46.773438 23.160156 46.734375 23.257812 46.667969 23.335938 C 46.585938 23.425781 46.441406 23.496094 46.1875 23.539062 C 46.046875 23.5625 45.941406 23.574219 45.875 23.574219 Z M 45.65625 22.324219" style="stroke:none;fill-rule:nonzero;fill:rgb(13.725491%,12.156863%,12.54902%);fill-opacity:1;"/>
<path d="M 48.53125 22.019531 L 48.550781 23.3125 L 48.257812 23.316406 L 48.238281 22.023438 Z M 48.53125 22.019531" style="stroke:none;fill-rule:nonzero;fill:rgb(13.725491%,12.156863%,12.54902%);fill-opacity:1;"/>
<path d="M 50.042969 23.390625 L 50.25 22.117188 L 50.585938 22.171875 L 50.773438 22.679688 C 50.828125 22.828125 50.878906 23 50.910156 23.152344 L 50.917969 23.152344 C 50.925781 22.980469 50.945312 22.808594 50.976562 22.617188 L 51.039062 22.246094 L 51.300781 22.285156 L 51.097656 23.5625 L 50.792969 23.515625 L 50.601562 22.976562 C 50.546875 22.828125 50.492188 22.652344 50.453125 22.492188 L 50.449219 22.492188 C 50.429688 22.664062 50.402344 22.84375 50.371094 23.050781 L 50.308594 23.433594 Z M 50.042969 23.390625" style="stroke:none;fill-rule:nonzero;fill:rgb(13.725491%,12.156863%,12.54902%);fill-opacity:1;"/>
<path d="M 54.921875 23.566406 L 54.6875 24.003906 L 55.113281 24.230469 L 55.34375 23.792969 L 55.601562 23.929688 L 54.992188 25.070312 L 54.738281 24.933594 L 54.992188 24.457031 L 54.570312 24.230469 L 54.316406 24.707031 L 54.058594 24.566406 L 54.664062 23.429688 Z M 54.921875 23.566406" style="stroke:none;fill-rule:nonzero;fill:rgb(13.725491%,12.156863%,12.54902%);fill-opacity:1;"/>
<path d="M 57.0625 25.878906 L 57.171875 25.613281 C 57.203125 25.542969 57.246094 25.453125 57.28125 25.382812 L 57.277344 25.378906 C 57.214844 25.425781 57.136719 25.488281 57.074219 25.535156 L 56.84375 25.695312 Z M 56.671875 25.839844 L 56.390625 26.035156 L 56.15625 25.84375 L 57.277344 25.097656 L 57.574219 25.339844 L 57.066406 26.59375 L 56.824219 26.394531 L 56.957031 26.074219 Z M 56.671875 25.839844" style="stroke:none;fill-rule:nonzero;fill:rgb(13.725491%,12.156863%,12.54902%);fill-opacity:1;"/>
<path d="M 59.125 28.136719 C 59.242188 28.035156 59.382812 27.910156 59.53125 27.792969 L 59.527344 27.789062 C 59.375 27.863281 59.195312 27.933594 59.046875 27.988281 L 58.558594 28.183594 L 58.414062 28.003906 L 58.71875 27.582031 C 58.8125 27.457031 58.925781 27.304688 59.039062 27.175781 L 59.035156 27.175781 C 58.894531 27.277344 58.738281 27.398438 58.605469 27.492188 L 58.210938 27.777344 L 58.042969 27.566406 L 59.097656 26.824219 L 59.339844 27.128906 L 59.082031 27.496094 C 58.992188 27.621094 58.890625 27.753906 58.792969 27.871094 L 58.796875 27.875 C 58.933594 27.8125 59.09375 27.738281 59.234375 27.683594 L 59.652344 27.523438 L 59.890625 27.820312 L 58.929688 28.683594 L 58.75 28.460938 Z M 59.125 28.136719" style="stroke:none;fill-rule:nonzero;fill:rgb(13.725491%,12.156863%,12.54902%);fill-opacity:1;"/>
<path d="M 59.796875 29.78125 L 60.863281 29.929688 L 60.871094 29.925781 L 60.617188 29.425781 L 60.832031 29.316406 L 61.257812 30.152344 L 61.105469 30.230469 L 60.058594 30.089844 L 60.050781 30.09375 L 60.328125 30.640625 L 60.113281 30.75 L 59.660156 29.851562 Z M 59.796875 29.78125" style="stroke:none;fill-rule:nonzero;fill:rgb(13.725491%,12.156863%,12.54902%);fill-opacity:1;"/>
<path d="M 61.339844 32.542969 L 61.582031 32.390625 C 61.648438 32.347656 61.734375 32.296875 61.800781 32.257812 L 61.800781 32.253906 C 61.722656 32.257812 61.625 32.265625 61.546875 32.265625 L 61.261719 32.269531 Z M 61.042969 32.289062 L 60.699219 32.289062 L 60.617188 32 L 61.960938 32.023438 L 62.066406 32.390625 L 60.941406 33.132812 L 60.851562 32.832031 L 61.144531 32.644531 Z M 61.042969 32.289062" style="stroke:none;fill-rule:nonzero;fill:rgb(13.725491%,12.156863%,12.54902%);fill-opacity:1;"/>
<path d="M 60.71875 22.117188 L 60.449219 22.117188 L 60.449219 22.019531 L 61.097656 22.019531 L 61.097656 22.117188 L 60.832031 22.117188 L 60.832031 22.898438 L 60.71875 22.898438 Z M 60.71875 22.117188" style="stroke:none;fill-rule:nonzero;fill:rgb(13.725491%,12.156863%,12.54902%);fill-opacity:1;"/>
<path d="M 61.933594 22.511719 C 61.929688 22.390625 61.921875 22.242188 61.921875 22.132812 L 61.917969 22.132812 C 61.886719 22.234375 61.851562 22.34375 61.808594 22.464844 L 61.652344 22.890625 L 61.566406 22.890625 L 61.425781 22.472656 C 61.382812 22.351562 61.347656 22.238281 61.324219 22.132812 L 61.320312 22.132812 C 61.320312 22.242188 61.3125 22.390625 61.304688 22.519531 L 61.28125 22.898438 L 61.171875 22.898438 L 61.234375 22.019531 L 61.378906 22.019531 L 61.527344 22.445312 C 61.566406 22.550781 61.59375 22.648438 61.617188 22.738281 L 61.621094 22.738281 C 61.644531 22.652344 61.675781 22.554688 61.710938 22.445312 L 61.867188 22.019531 L 62.011719 22.019531 L 62.066406 22.898438 L 61.957031 22.898438 Z M 61.933594 22.511719" style="stroke:none;fill-rule:nonzero;fill:rgb(13.725491%,12.156863%,12.54902%);fill-opacity:1;"/>
</g>
</svg>